<svg xmlns="http://www.w3.org/2000/svg" xml:space="preserve" width="655.359" height="655.359" style="shape-rendering:geometricPrecision;text-rendering:geometricPrecision;image-rendering:optimizeQuality;fill-rule:evenodd;clip-rule:evenodd" viewBox="0 0 6.827 6.827"><defs><style>.fil1{fill:#fffffe;fill-rule:nonzero}</style></defs><path style="fill:#424242" d="M0 0h6.827v6.827H0z"/><g id="Layer_x0020_1"><path class="fil1" d="M2.575 1.724a.604.604 0 0 1 .605.605.604.604 0 0 1-.605.605.604.604 0 0 1-.605-.605.604.604 0 0 1 .605-.605zM3.424 4.12l.005.876a.107.107 0 0 1-.105.107H1.826a.107.107 0 0 1-.107-.107v-.475l-.198.414-.096-.046.096.046a.107.107 0 0 1-.098.061H.96a.107.107 0 0 1-.09-.163c.03-.058.076-.151.133-.268.268-.546.77-1.57 1.04-1.57h1.064a.373.373 0 0 1 .278.141l.547.583.378-.277a.106.106 0 0 1 .072-.02l.784-.003a.107.107 0 0 1 .05.2l-1.336.868-.058-.09.058.09a.107.107 0 0 1-.141-.022l-.315-.345z"/><g id="_399192032"><path id="_399192440" class="fil1" d="M4.92 2.08a.15.15 0 0 1 .105.254.15.15 0 0 1-.256-.105.15.15 0 0 1 .15-.15z"/><path id="_399191384" class="fil1" d="M3.971 3.183c-.058 0-.106.034-.106.076 0 .042.048.077.106.077h1.896c.059 0 .106-.035.106-.077 0-.042-.047-.076-.106-.076H3.972z"/><path id="_399192056" class="fil1" d="M4.114 3.13a.802.802 0 0 1 .805-.805.802.802 0 0 1 .805.805h-1.61z"/></g></g><path style="fill:none" d="M0 0h6.827v6.827H0z"/></svg>